<svg width="97" height="74" viewBox="0 0 97 74" fill="none" xmlns="http://www.w3.org/2000/svg">
<path d="M6.27686 29.0821L16.4153 25.8651V48.135C9.17346 45.1654 6.27686 39.4743 6.27686 36.258V29.0821Z" fill="#0500FF"/>
<path d="M26.5545 29.0821L16.416 25.8651V48.135C23.6579 45.1654 26.5545 39.4743 26.5545 36.258V29.0821Z" fill="url(#paint0_linear_665_35833)"/>
<path d="M44.3589 31.1183H48.3799V33.3171C49.6973 31.341 51.2133 31.1183 53.4326 31.1183V35.004H52.4219C49.7626 35.004 48.4894 36.2257 48.4894 38.6457V42.776H44.3589V31.1183Z" fill="#0500FF"/>
<path d="M66.849 42.7755H62.7192V41.6641C61.8173 42.6857 60.5883 43.1297 59.073 43.1297C56.1953 43.1297 54.5684 41.464 54.5684 38.4006V31.1178H58.6982V37.4913C58.6982 38.9337 59.4232 39.7771 60.6529 39.7771C61.8825 39.7771 62.7185 38.9549 62.7185 37.5571V31.1178H66.8482V42.7755H66.849Z" fill="#0500FF"/>
<path d="M67.8584 39.1769H71.7264C71.9026 40.0204 72.4956 40.3753 73.9225 40.3753C75.0876 40.3753 75.7684 40.1094 75.7684 39.6209C75.7684 39.2427 75.4386 38.9981 74.4953 38.7987L71.3755 38.1101C69.2881 37.6448 68.2332 36.4677 68.2332 34.5793C68.2332 32.0914 70.1002 30.8039 73.7253 30.8039C77.3505 30.8039 79.1297 32.0585 79.4385 34.7465H75.5944C75.5291 34.0366 74.7809 33.6022 73.5512 33.6022C72.563 33.6022 71.9271 33.9126 71.9271 34.3799C71.9271 34.7794 72.3433 35.0898 73.18 35.2912L76.4528 36.0689C78.6054 36.5787 79.6393 37.6455 79.6393 39.377C79.6393 41.7758 77.5077 43.1969 73.8846 43.1969C70.2616 43.1969 67.8647 41.6648 67.8647 39.1769H67.8605H67.8584Z" fill="#0500FF"/>
<path d="M90.6358 34.7438V31.1178H80.4419V34.7458H83.4838V42.7755H87.5925V34.7438H90.6358Z" fill="#0500FF"/>
<path d="M43.2093 34.7438V31.1178H33.0161V34.7458H36.058V42.7755H40.1674V34.7438H43.2093Z" fill="#0500FF"/>
<defs>
<linearGradient id="paint0_linear_665_35833" x1="23.8614" y1="24.3056" x2="16.5308" y2="47.9326" gradientUnits="userSpaceOnUse">
<stop offset="0.02" stop-color="#0000FF"/>
<stop offset="0.08" stop-color="#0094FF"/>
<stop offset="0.16" stop-color="#48FF91"/>
<stop offset="0.42" stop-color="#0094FF"/>
<stop offset="0.68" stop-color="#0038FF"/>
<stop offset="0.9" stop-color="#0500FF"/>
</linearGradient>
</defs>
</svg>
